<svg id="instagram_3_" data-name="instagram (3)" xmlns="http://www.w3.org/2000/svg" width="13.646" height="13.646" viewBox="0 0 13.646 13.646">
  <g id="Group_841" data-name="Group 841" transform="translate(10.458 2.525)">
    <g id="Group_840" data-name="Group 840">
      <path id="Path_11806" data-name="Path 11806" d="M392.732,94.739a.331.331,0,1,0,.331.331A.332.332,0,0,0,392.732,94.739Z" transform="translate(-392.401 -94.739)" fill="#958a9d"/>
    </g>
  </g>
  <g id="Group_843" data-name="Group 843" transform="translate(3.886 3.886)">
    <g id="Group_842" data-name="Group 842">
      <path id="Path_11807" data-name="Path 11807" d="M148.741,145.8a2.937,2.937,0,1,0,2.937,2.937A2.94,2.94,0,0,0,148.741,145.8Z" transform="translate(-145.804 -145.804)" fill="#958a9d"/>
    </g>
  </g>
  <g id="Group_845" data-name="Group 845" transform="translate(0)">
    <g id="Group_844" data-name="Group 844">
      <path id="Path_11808" data-name="Path 11808" d="M9.9,0H3.741A3.745,3.745,0,0,0,0,3.741V9.9a3.745,3.745,0,0,0,3.741,3.741H9.9A3.745,3.745,0,0,0,13.646,9.9V3.741A3.745,3.745,0,0,0,9.9,0ZM6.823,10.565a3.743,3.743,0,1,1,3.743-3.743A3.747,3.747,0,0,1,6.823,10.565Zm3.967-6.572a1.137,1.137,0,1,1,1.137-1.137A1.138,1.138,0,0,1,10.789,3.993Z" transform="translate(0)" fill="#958a9d"/>
    </g>
  </g>
</svg>
