<svg id="whatsapp_18_" data-name="whatsapp (18)" xmlns="http://www.w3.org/2000/svg" width="15.152" height="15.151" viewBox="0 0 15.152 15.151">
  <g id="Group_5813" data-name="Group 5813">
    <path id="Path_31611" data-name="Path 31611" d="M7.578,0h0A7.571,7.571,0,0,0,1.442,12.016L.5,14.831,3.41,13.9A7.574,7.574,0,1,0,7.578,0Zm4.408,10.7A2.138,2.138,0,0,1,10.5,11.767c-.4.084-.913.152-2.653-.57A9.49,9.49,0,0,1,4.074,7.866a4.327,4.327,0,0,1-.9-2.285,2.419,2.419,0,0,1,.775-1.844,1.1,1.1,0,0,1,.775-.272c.094,0,.178,0,.254.009.223.009.334.023.481.374.183.44.628,1.527.681,1.639a.451.451,0,0,1,.032.41,1.309,1.309,0,0,1-.245.348c-.112.129-.218.227-.33.366-.1.12-.218.249-.089.472A6.724,6.724,0,0,0,6.737,8.609,5.57,5.57,0,0,0,8.513,9.7a.479.479,0,0,0,.534-.084,9.166,9.166,0,0,0,.592-.784.423.423,0,0,1,.544-.165c.2.071,1.287.606,1.509.717s.369.165.423.259A1.887,1.887,0,0,1,11.986,10.7Z" fill="#401460"/>
  </g>
</svg>
